G04 (created by PCBNEW (2013-07-07 BZR 4022)-stable) date 24/04/2015 17:54:37*
%MOIN*%
G04 Gerber Fmt 3.4, Leading zero omitted, Abs format*
%FSLAX34Y34*%
G01*
G70*
G90*
G04 APERTURE LIST*
%ADD10C,0.00590551*%
%ADD11C,0.11811*%
%ADD12R,0.0906X0.0197*%
%ADD13R,0.0984X0.0787*%
%ADD14C,0.0354*%
%ADD15R,0.02X0.03*%
%ADD16R,0.0394X0.0315*%
%ADD17R,0.02X0.05*%
%ADD18R,0.0590551X0.0590551*%
%ADD19R,0.055X0.035*%
%ADD20R,0.035X0.055*%
%ADD21R,0.055X0.055*%
%ADD22C,0.055*%
%ADD23C,0.08*%
%ADD24C,0.066*%
%ADD25C,0.056*%
%ADD26R,0.0512X0.059*%
%ADD27R,0.059X0.0512*%
G04 APERTURE END LIST*
G54D10*
G54D11*
X58590Y-47775D03*
X59290Y-64155D03*
G54D12*
X44618Y-51590D03*
X44618Y-51905D03*
X44618Y-52220D03*
X44618Y-52535D03*
X44618Y-52850D03*
G54D13*
X44579Y-50468D03*
X42414Y-50468D03*
X44579Y-53972D03*
X42414Y-53972D03*
G54D14*
X43595Y-51354D03*
X43595Y-53086D03*
G54D11*
X54385Y-57090D03*
X54420Y-61035D03*
X51415Y-64920D03*
G54D15*
X52175Y-54830D03*
X52925Y-54830D03*
X52175Y-53830D03*
X52550Y-54830D03*
X52925Y-53830D03*
G54D16*
X50533Y-63915D03*
X49667Y-64290D03*
X49667Y-63540D03*
G54D17*
X50475Y-52985D03*
X49975Y-52985D03*
X49475Y-52985D03*
X48975Y-52985D03*
X48475Y-52985D03*
X47975Y-52985D03*
X47475Y-52985D03*
X46975Y-52985D03*
X46475Y-52985D03*
X45975Y-52985D03*
X45975Y-56785D03*
X46475Y-56785D03*
X46975Y-56785D03*
X47475Y-56785D03*
X47975Y-56785D03*
X48475Y-56785D03*
X48975Y-56785D03*
X49475Y-56785D03*
X49975Y-56785D03*
X50475Y-56785D03*
G54D18*
X57120Y-48506D03*
X53850Y-53156D03*
X57990Y-61871D03*
G54D19*
X49665Y-60770D03*
X49665Y-61520D03*
X57015Y-50820D03*
X57015Y-50070D03*
X47850Y-49755D03*
X47850Y-50505D03*
G54D20*
X53385Y-48555D03*
X54135Y-48555D03*
X51765Y-48465D03*
X51015Y-48465D03*
G54D19*
X48105Y-51990D03*
X48105Y-51240D03*
X48375Y-64725D03*
X48375Y-63975D03*
X48735Y-60660D03*
X48735Y-61410D03*
G54D20*
X44285Y-63090D03*
X45035Y-63090D03*
X43485Y-63870D03*
X44235Y-63870D03*
X57225Y-51735D03*
X56475Y-51735D03*
G54D19*
X48775Y-50380D03*
X48775Y-49630D03*
X56475Y-53235D03*
X56475Y-52485D03*
G54D20*
X47850Y-48820D03*
X48600Y-48820D03*
X44305Y-61865D03*
X45055Y-61865D03*
X43590Y-61080D03*
X44340Y-61080D03*
X55815Y-55615D03*
X55065Y-55615D03*
X54210Y-55560D03*
X53460Y-55560D03*
G54D19*
X54630Y-54105D03*
X54630Y-54855D03*
G54D21*
X47275Y-47415D03*
G54D22*
X46275Y-47415D03*
X45275Y-47415D03*
X44275Y-47415D03*
X43275Y-47415D03*
G54D21*
X53425Y-64590D03*
G54D22*
X54425Y-64590D03*
X55425Y-64590D03*
X56425Y-64590D03*
X57425Y-64590D03*
G54D21*
X50880Y-47230D03*
G54D22*
X51880Y-47230D03*
X52880Y-47230D03*
X53880Y-47230D03*
G54D21*
X56070Y-47535D03*
G54D22*
X56070Y-48535D03*
X56070Y-49535D03*
X56070Y-50535D03*
G54D21*
X42160Y-56250D03*
G54D22*
X43160Y-56250D03*
G54D21*
X43570Y-57900D03*
G54D22*
X44570Y-57900D03*
G54D21*
X57435Y-53680D03*
G54D22*
X57435Y-54680D03*
G54D21*
X42615Y-61570D03*
G54D22*
X42615Y-62570D03*
G54D23*
X53030Y-58520D03*
X52030Y-62520D03*
X51030Y-58520D03*
X57770Y-57185D03*
X56770Y-61185D03*
X55770Y-57185D03*
G54D24*
X45415Y-64500D03*
X46415Y-64500D03*
X46705Y-62605D03*
X46705Y-61605D03*
G54D25*
X47025Y-59640D03*
X45025Y-59640D03*
G54D26*
X44475Y-56265D03*
X45225Y-56265D03*
X49675Y-62685D03*
X50425Y-62685D03*
X44375Y-55130D03*
X45125Y-55130D03*
X53900Y-62525D03*
X54650Y-62525D03*
X42285Y-60330D03*
X43035Y-60330D03*
X42290Y-59290D03*
X43040Y-59290D03*
G54D27*
X55790Y-54780D03*
X55790Y-54030D03*
G54D21*
X44040Y-64920D03*
G54D22*
X43040Y-64920D03*
M02*
