M48
INCH,TZ
T1C0.020
T2C0.030
T3C0.032
T4C0.050
T5C0.091
%
G90
G05
T1
X42330Y-57945
X42635Y-55060
X43520Y-61960
X43605Y-63090
X43875Y-56010
X43945Y-49020
X44470Y-53270
X44860Y-51260
X45050Y-61060
X45780Y-49065
X45870Y-48340
X46000Y-49950
X46205Y-50580
X46300Y-56030
X47470Y-57620
X47520Y-51250
X48850Y-54730
X49005Y-63930
X49300Y-51580
X49350Y-48180
X49760Y-50480
X49845Y-52320
X50040Y-53910
X50700Y-61920
X50865Y-52335
X51080Y-50120
X51830Y-56250
X52155Y-53235
X52530Y-55545
X53040Y-53310
X54360Y-48975
X54370Y-50020
X54690Y-53550
X54945Y-50985
X55800Y-52545
X56490Y-54015
X56490Y-55125
X56490Y-55965
X57210Y-52470
T2
X45025Y-59640
X47025Y-59640
T3
X42160Y-56250
X42615Y-61570
X42615Y-62570
X43040Y-64920
X43160Y-56250
X43275Y-47415
X43570Y-57900
X44040Y-64920
X44275Y-47415
X44570Y-57900
X45275Y-47415
X45415Y-64500
X46275Y-47415
X46415Y-64500
X46705Y-61605
X46705Y-62605
X47275Y-47415
X50880Y-47230
X51880Y-47230
X52880Y-47230
X53425Y-64590
X53880Y-47230
X54425Y-64590
X55425Y-64590
X56070Y-47535
X56070Y-48535
X56070Y-49535
X56070Y-50535
X56425Y-64590
X57425Y-64590
X57435Y-53680
X57435Y-54680
T4
X51030Y-58520
X52030Y-62520
X53030Y-58520
X55770Y-57185
X56770Y-61185
X57770Y-57185
T5
X51415Y-64920
X54385Y-57090
X54420Y-61035
X58590Y-47775
X59290Y-64155
T0
M30
