G04 (created by PCBNEW (2013-07-07 BZR 4022)-stable) date 24/04/2015 17:54:37*
%MOIN*%
G04 Gerber Fmt 3.4, Leading zero omitted, Abs format*
%FSLAX34Y34*%
G01*
G70*
G90*
G04 APERTURE LIST*
%ADD10C,0.00590551*%
%ADD11C,0.0108268*%
%ADD12C,0.011811*%
%ADD13C,0.005*%
%ADD14C,0.0039*%
%ADD15C,0.0026*%
%ADD16C,0.004*%
%ADD17C,0.002*%
%ADD18C,0.0047*%
%ADD19C,0.0043*%
%ADD20C,0.0024*%
%ADD21C,0.0051*%
G04 APERTURE END LIST*
G54D10*
G54D11*
X58657Y-65446D02*
X58574Y-65735D01*
X58492Y-65529D01*
X58410Y-65735D01*
X58327Y-65446D01*
X58203Y-65446D02*
X58121Y-65735D01*
X58038Y-65529D01*
X57956Y-65735D01*
X57873Y-65446D01*
X57750Y-65446D02*
X57667Y-65735D01*
X57585Y-65529D01*
X57502Y-65735D01*
X57420Y-65446D01*
X57255Y-65694D02*
X57234Y-65714D01*
X57255Y-65735D01*
X57275Y-65714D01*
X57255Y-65694D01*
X57255Y-65735D01*
X57048Y-65735D02*
X57048Y-65302D01*
X57007Y-65570D02*
X56883Y-65735D01*
X56883Y-65446D02*
X57048Y-65611D01*
X56512Y-65735D02*
X56512Y-65508D01*
X56533Y-65467D01*
X56574Y-65446D01*
X56657Y-65446D01*
X56698Y-65467D01*
X56512Y-65714D02*
X56553Y-65735D01*
X56657Y-65735D01*
X56698Y-65714D01*
X56718Y-65673D01*
X56718Y-65632D01*
X56698Y-65590D01*
X56657Y-65570D01*
X56553Y-65570D01*
X56512Y-65549D01*
X56306Y-65735D02*
X56306Y-65446D01*
X56306Y-65529D02*
X56285Y-65487D01*
X56265Y-65467D01*
X56224Y-65446D01*
X56182Y-65446D01*
X56038Y-65735D02*
X56038Y-65446D01*
X56038Y-65529D02*
X56017Y-65487D01*
X55997Y-65467D01*
X55955Y-65446D01*
X55914Y-65446D01*
X55770Y-65735D02*
X55770Y-65446D01*
X55770Y-65302D02*
X55790Y-65322D01*
X55770Y-65343D01*
X55749Y-65322D01*
X55770Y-65302D01*
X55770Y-65343D01*
X55564Y-65735D02*
X55564Y-65302D01*
X55522Y-65570D02*
X55399Y-65735D01*
X55399Y-65446D02*
X55564Y-65611D01*
X55213Y-65735D02*
X55213Y-65446D01*
X55213Y-65302D02*
X55234Y-65322D01*
X55213Y-65343D01*
X55192Y-65322D01*
X55213Y-65302D01*
X55213Y-65343D01*
X55048Y-65446D02*
X54945Y-65735D01*
X54842Y-65446D01*
X54512Y-65714D02*
X54553Y-65735D01*
X54636Y-65735D01*
X54677Y-65714D01*
X54697Y-65673D01*
X54697Y-65508D01*
X54677Y-65467D01*
X54636Y-65446D01*
X54553Y-65446D01*
X54512Y-65467D01*
X54491Y-65508D01*
X54491Y-65549D01*
X54697Y-65590D01*
X54244Y-65735D02*
X54285Y-65714D01*
X54306Y-65673D01*
X54306Y-65302D01*
X53893Y-65735D02*
X53893Y-65508D01*
X53914Y-65467D01*
X53955Y-65446D01*
X54038Y-65446D01*
X54079Y-65467D01*
X53893Y-65714D02*
X53934Y-65735D01*
X54038Y-65735D01*
X54079Y-65714D01*
X54099Y-65673D01*
X54099Y-65632D01*
X54079Y-65590D01*
X54038Y-65570D01*
X53934Y-65570D01*
X53893Y-65549D01*
X53687Y-65694D02*
X53666Y-65714D01*
X53687Y-65735D01*
X53708Y-65714D01*
X53687Y-65694D01*
X53687Y-65735D01*
X53543Y-65446D02*
X53378Y-65446D01*
X53481Y-65735D02*
X53481Y-65364D01*
X53460Y-65322D01*
X53419Y-65302D01*
X53378Y-65302D01*
X53233Y-65735D02*
X53233Y-65446D01*
X53233Y-65302D02*
X53254Y-65322D01*
X53233Y-65343D01*
X53213Y-65322D01*
X53233Y-65302D01*
X53233Y-65343D01*
G54D12*
X59413Y-63251D02*
X59886Y-63251D01*
X59413Y-62981D02*
X59683Y-63184D01*
X59886Y-62981D02*
X59616Y-63251D01*
X59413Y-62576D02*
X59661Y-62576D01*
X59706Y-62599D01*
X59728Y-62644D01*
X59728Y-62734D01*
X59706Y-62779D01*
X59436Y-62576D02*
X59413Y-62621D01*
X59413Y-62734D01*
X59436Y-62779D01*
X59481Y-62801D01*
X59526Y-62801D01*
X59571Y-62779D01*
X59593Y-62734D01*
X59593Y-62621D01*
X59616Y-62576D01*
X59413Y-62351D02*
X59728Y-62351D01*
X59638Y-62351D02*
X59683Y-62329D01*
X59706Y-62306D01*
X59728Y-62261D01*
X59728Y-62216D01*
X59413Y-62059D02*
X59728Y-62059D01*
X59638Y-62059D02*
X59683Y-62036D01*
X59706Y-62014D01*
X59728Y-61969D01*
X59728Y-61924D01*
X59413Y-61766D02*
X59728Y-61766D01*
X59886Y-61766D02*
X59863Y-61789D01*
X59841Y-61766D01*
X59863Y-61744D01*
X59886Y-61766D01*
X59841Y-61766D01*
X59413Y-61181D02*
X59886Y-61181D01*
X59413Y-60911D02*
X59683Y-61114D01*
X59886Y-60911D02*
X59616Y-61181D01*
X59413Y-60709D02*
X59728Y-60709D01*
X59886Y-60709D02*
X59863Y-60731D01*
X59841Y-60709D01*
X59863Y-60686D01*
X59886Y-60709D01*
X59841Y-60709D01*
X59728Y-60529D02*
X59413Y-60416D01*
X59728Y-60304D01*
X59436Y-59944D02*
X59413Y-59989D01*
X59413Y-60079D01*
X59436Y-60124D01*
X59481Y-60146D01*
X59661Y-60146D01*
X59706Y-60124D01*
X59728Y-60079D01*
X59728Y-59989D01*
X59706Y-59944D01*
X59661Y-59921D01*
X59616Y-59921D01*
X59571Y-60146D01*
X59413Y-59651D02*
X59436Y-59696D01*
X59481Y-59719D01*
X59886Y-59719D01*
X59413Y-59269D02*
X59661Y-59269D01*
X59706Y-59292D01*
X59728Y-59337D01*
X59728Y-59427D01*
X59706Y-59472D01*
X59436Y-59269D02*
X59413Y-59314D01*
X59413Y-59427D01*
X59436Y-59472D01*
X59481Y-59494D01*
X59526Y-59494D01*
X59571Y-59472D01*
X59593Y-59427D01*
X59593Y-59314D01*
X59616Y-59269D01*
X59886Y-59472D02*
X59863Y-59449D01*
X59841Y-59472D01*
X59863Y-59494D01*
X59886Y-59472D01*
X59841Y-59472D01*
X59886Y-59292D02*
X59863Y-59269D01*
X59841Y-59292D01*
X59863Y-59314D01*
X59886Y-59292D01*
X59841Y-59292D01*
X59886Y-58594D02*
X59886Y-58549D01*
X59863Y-58504D01*
X59841Y-58482D01*
X59796Y-58459D01*
X59706Y-58437D01*
X59593Y-58437D01*
X59503Y-58459D01*
X59458Y-58482D01*
X59436Y-58504D01*
X59413Y-58549D01*
X59413Y-58594D01*
X59436Y-58639D01*
X59458Y-58662D01*
X59503Y-58684D01*
X59593Y-58707D01*
X59706Y-58707D01*
X59796Y-58684D01*
X59841Y-58662D01*
X59863Y-58639D01*
X59886Y-58594D01*
X59728Y-58032D02*
X59413Y-58032D01*
X59908Y-58144D02*
X59571Y-58257D01*
X59571Y-57964D01*
X59908Y-57447D02*
X59301Y-57852D01*
X59841Y-57312D02*
X59863Y-57289D01*
X59886Y-57244D01*
X59886Y-57132D01*
X59863Y-57087D01*
X59841Y-57064D01*
X59796Y-57042D01*
X59751Y-57042D01*
X59683Y-57064D01*
X59413Y-57334D01*
X59413Y-57042D01*
X59886Y-56749D02*
X59886Y-56704D01*
X59863Y-56659D01*
X59841Y-56637D01*
X59796Y-56614D01*
X59706Y-56592D01*
X59593Y-56592D01*
X59503Y-56614D01*
X59458Y-56637D01*
X59436Y-56659D01*
X59413Y-56704D01*
X59413Y-56749D01*
X59436Y-56794D01*
X59458Y-56817D01*
X59503Y-56839D01*
X59593Y-56862D01*
X59706Y-56862D01*
X59796Y-56839D01*
X59841Y-56817D01*
X59863Y-56794D01*
X59886Y-56749D01*
X59413Y-56142D02*
X59413Y-56412D01*
X59413Y-56277D02*
X59886Y-56277D01*
X59818Y-56322D01*
X59773Y-56367D01*
X59751Y-56412D01*
X59886Y-55714D02*
X59886Y-55939D01*
X59661Y-55962D01*
X59683Y-55939D01*
X59706Y-55894D01*
X59706Y-55782D01*
X59683Y-55737D01*
X59661Y-55714D01*
X59616Y-55692D01*
X59503Y-55692D01*
X59458Y-55714D01*
X59436Y-55737D01*
X59413Y-55782D01*
X59413Y-55894D01*
X59436Y-55939D01*
X59458Y-55962D01*
X59436Y-55467D02*
X59413Y-55467D01*
X59368Y-55490D01*
X59346Y-55512D01*
X59413Y-54905D02*
X59886Y-54905D01*
X59593Y-54860D02*
X59413Y-54725D01*
X59728Y-54725D02*
X59548Y-54905D01*
X59413Y-54320D02*
X59661Y-54320D01*
X59706Y-54342D01*
X59728Y-54387D01*
X59728Y-54477D01*
X59706Y-54522D01*
X59436Y-54320D02*
X59413Y-54365D01*
X59413Y-54477D01*
X59436Y-54522D01*
X59481Y-54545D01*
X59526Y-54545D01*
X59571Y-54522D01*
X59593Y-54477D01*
X59593Y-54365D01*
X59616Y-54320D01*
X59413Y-54095D02*
X59728Y-54095D01*
X59638Y-54095D02*
X59683Y-54072D01*
X59706Y-54050D01*
X59728Y-54005D01*
X59728Y-53960D01*
X59413Y-53802D02*
X59728Y-53802D01*
X59638Y-53802D02*
X59683Y-53780D01*
X59706Y-53757D01*
X59728Y-53712D01*
X59728Y-53667D01*
X59413Y-53510D02*
X59728Y-53510D01*
X59886Y-53510D02*
X59863Y-53532D01*
X59841Y-53510D01*
X59863Y-53487D01*
X59886Y-53510D01*
X59841Y-53510D01*
X59436Y-53307D02*
X59413Y-53262D01*
X59413Y-53172D01*
X59436Y-53127D01*
X59481Y-53105D01*
X59503Y-53105D01*
X59548Y-53127D01*
X59571Y-53172D01*
X59571Y-53240D01*
X59593Y-53285D01*
X59638Y-53307D01*
X59661Y-53307D01*
X59706Y-53285D01*
X59728Y-53240D01*
X59728Y-53172D01*
X59706Y-53127D01*
X59728Y-52970D02*
X59728Y-52790D01*
X59886Y-52902D02*
X59481Y-52902D01*
X59436Y-52880D01*
X59413Y-52835D01*
X59413Y-52790D01*
X59436Y-52452D02*
X59413Y-52497D01*
X59413Y-52587D01*
X59436Y-52632D01*
X59481Y-52655D01*
X59661Y-52655D01*
X59706Y-52632D01*
X59728Y-52587D01*
X59728Y-52497D01*
X59706Y-52452D01*
X59661Y-52430D01*
X59616Y-52430D01*
X59571Y-52655D01*
X59413Y-52227D02*
X59728Y-52227D01*
X59638Y-52227D02*
X59683Y-52205D01*
X59706Y-52182D01*
X59728Y-52137D01*
X59728Y-52092D01*
X59638Y-51642D02*
X59661Y-51665D01*
X59683Y-51710D01*
X59683Y-51755D01*
X59661Y-51800D01*
X59638Y-51822D01*
X59593Y-51845D01*
X59548Y-51845D01*
X59503Y-51822D01*
X59481Y-51800D01*
X59458Y-51755D01*
X59458Y-51710D01*
X59481Y-51665D01*
X59503Y-51642D01*
X59683Y-51642D02*
X59503Y-51642D01*
X59481Y-51620D01*
X59481Y-51597D01*
X59503Y-51553D01*
X59548Y-51530D01*
X59661Y-51530D01*
X59728Y-51575D01*
X59773Y-51642D01*
X59796Y-51732D01*
X59773Y-51822D01*
X59728Y-51890D01*
X59661Y-51935D01*
X59571Y-51957D01*
X59481Y-51935D01*
X59413Y-51890D01*
X59368Y-51822D01*
X59346Y-51732D01*
X59368Y-51642D01*
X59413Y-51575D01*
X59728Y-51125D02*
X59346Y-51125D01*
X59301Y-51148D01*
X59278Y-51170D01*
X59256Y-51215D01*
X59256Y-51283D01*
X59278Y-51328D01*
X59436Y-51125D02*
X59413Y-51170D01*
X59413Y-51260D01*
X59436Y-51305D01*
X59458Y-51328D01*
X59503Y-51350D01*
X59638Y-51350D01*
X59683Y-51328D01*
X59706Y-51305D01*
X59728Y-51260D01*
X59728Y-51170D01*
X59706Y-51125D01*
X59413Y-50900D02*
X59728Y-50900D01*
X59683Y-50900D02*
X59706Y-50878D01*
X59728Y-50833D01*
X59728Y-50765D01*
X59706Y-50720D01*
X59661Y-50698D01*
X59413Y-50698D01*
X59661Y-50698D02*
X59706Y-50675D01*
X59728Y-50630D01*
X59728Y-50563D01*
X59706Y-50518D01*
X59661Y-50495D01*
X59413Y-50495D01*
X59413Y-50068D02*
X59661Y-50068D01*
X59706Y-50090D01*
X59728Y-50135D01*
X59728Y-50225D01*
X59706Y-50270D01*
X59436Y-50068D02*
X59413Y-50113D01*
X59413Y-50225D01*
X59436Y-50270D01*
X59481Y-50293D01*
X59526Y-50293D01*
X59571Y-50270D01*
X59593Y-50225D01*
X59593Y-50113D01*
X59616Y-50068D01*
X59413Y-49843D02*
X59728Y-49843D01*
X59886Y-49843D02*
X59863Y-49865D01*
X59841Y-49843D01*
X59863Y-49820D01*
X59886Y-49843D01*
X59841Y-49843D01*
X59413Y-49550D02*
X59436Y-49595D01*
X59481Y-49618D01*
X59886Y-49618D01*
X59458Y-49370D02*
X59436Y-49348D01*
X59413Y-49370D01*
X59436Y-49393D01*
X59458Y-49370D01*
X59413Y-49370D01*
X59436Y-48943D02*
X59413Y-48988D01*
X59413Y-49078D01*
X59436Y-49123D01*
X59458Y-49145D01*
X59503Y-49168D01*
X59638Y-49168D01*
X59683Y-49145D01*
X59706Y-49123D01*
X59728Y-49078D01*
X59728Y-48988D01*
X59706Y-48943D01*
X59413Y-48673D02*
X59436Y-48718D01*
X59458Y-48740D01*
X59503Y-48763D01*
X59638Y-48763D01*
X59683Y-48740D01*
X59706Y-48718D01*
X59728Y-48673D01*
X59728Y-48605D01*
X59706Y-48560D01*
X59683Y-48538D01*
X59638Y-48515D01*
X59503Y-48515D01*
X59458Y-48538D01*
X59436Y-48560D01*
X59413Y-48605D01*
X59413Y-48673D01*
X59413Y-48313D02*
X59728Y-48313D01*
X59683Y-48313D02*
X59706Y-48290D01*
X59728Y-48245D01*
X59728Y-48178D01*
X59706Y-48133D01*
X59661Y-48110D01*
X59413Y-48110D01*
X59661Y-48110D02*
X59706Y-48088D01*
X59728Y-48043D01*
X59728Y-47975D01*
X59706Y-47930D01*
X59661Y-47908D01*
X59413Y-47908D01*
G54D13*
X52700Y-48045D02*
X52000Y-48045D01*
X52000Y-48045D02*
X52000Y-49245D01*
X52000Y-49245D02*
X52700Y-49245D01*
X52700Y-49245D02*
X52700Y-48045D01*
X46800Y-50800D02*
X47500Y-50800D01*
X47500Y-50800D02*
X47500Y-49600D01*
X47500Y-49600D02*
X46800Y-49600D01*
X46800Y-49600D02*
X46800Y-50800D01*
G54D10*
X50310Y-49660D02*
X50310Y-46860D01*
X50310Y-46860D02*
X48360Y-46860D01*
X48360Y-46860D02*
X48360Y-49660D01*
X48360Y-49660D02*
X50310Y-49660D01*
X49720Y-54325D02*
X49720Y-53425D01*
X48820Y-53425D02*
X48820Y-54325D01*
X48820Y-54325D02*
X49720Y-54325D01*
X48820Y-53425D02*
X49720Y-53425D01*
G54D13*
X52600Y-52350D02*
X51400Y-52350D01*
X51400Y-50900D02*
X51400Y-50150D01*
X51400Y-50150D02*
X52600Y-50150D01*
X52600Y-50150D02*
X52600Y-50900D01*
X52600Y-51550D02*
X52600Y-52350D01*
X52600Y-52271D02*
X51400Y-52271D01*
X51400Y-52350D02*
X51400Y-51550D01*
G54D14*
X48055Y-49125D02*
G75*
G03X48055Y-49125I-50J0D01*
G74*
G01*
X47555Y-49125D02*
X47955Y-49125D01*
X47955Y-49125D02*
X47955Y-48525D01*
X47955Y-48525D02*
X47555Y-48525D01*
X47155Y-48525D02*
X46755Y-48525D01*
X46755Y-48525D02*
X46755Y-49125D01*
X46755Y-49125D02*
X47155Y-49125D01*
X45995Y-52480D02*
G75*
G03X45995Y-52480I-50J0D01*
G74*
G01*
X45945Y-52930D02*
X45945Y-52530D01*
X45945Y-52530D02*
X45345Y-52530D01*
X45345Y-52530D02*
X45345Y-52930D01*
X45345Y-53330D02*
X45345Y-53730D01*
X45345Y-53730D02*
X45945Y-53730D01*
X45945Y-53730D02*
X45945Y-53330D01*
X47980Y-52240D02*
G75*
G03X47980Y-52240I-50J0D01*
G74*
G01*
X47930Y-51790D02*
X47930Y-52190D01*
X47930Y-52190D02*
X48530Y-52190D01*
X48530Y-52190D02*
X48530Y-51790D01*
X48530Y-51390D02*
X48530Y-50990D01*
X48530Y-50990D02*
X47930Y-50990D01*
X47930Y-50990D02*
X47930Y-51390D01*
X53000Y-52175D02*
G75*
G03X53000Y-52175I-50J0D01*
G74*
G01*
X52950Y-51725D02*
X52950Y-52125D01*
X52950Y-52125D02*
X53550Y-52125D01*
X53550Y-52125D02*
X53550Y-51725D01*
X53550Y-51325D02*
X53550Y-50925D01*
X53550Y-50925D02*
X52950Y-50925D01*
X52950Y-50925D02*
X52950Y-51325D01*
G54D15*
X46724Y-52018D02*
X46724Y-52146D01*
X46724Y-52146D02*
X46527Y-52146D01*
X46527Y-52018D02*
X46527Y-52146D01*
X46724Y-52018D02*
X46527Y-52018D01*
X46724Y-51773D02*
X46724Y-51832D01*
X46724Y-51832D02*
X46625Y-51832D01*
X46625Y-51773D02*
X46625Y-51832D01*
X46724Y-51773D02*
X46625Y-51773D01*
X46724Y-51968D02*
X46724Y-52027D01*
X46724Y-52027D02*
X46625Y-52027D01*
X46625Y-51968D02*
X46625Y-52027D01*
X46724Y-51968D02*
X46625Y-51968D01*
X46724Y-51822D02*
X46724Y-51978D01*
X46724Y-51978D02*
X46655Y-51978D01*
X46655Y-51822D02*
X46655Y-51978D01*
X46724Y-51822D02*
X46655Y-51822D01*
X47313Y-52018D02*
X47313Y-52146D01*
X47313Y-52146D02*
X47116Y-52146D01*
X47116Y-52018D02*
X47116Y-52146D01*
X47313Y-52018D02*
X47116Y-52018D01*
X47313Y-51654D02*
X47313Y-51782D01*
X47313Y-51782D02*
X47116Y-51782D01*
X47116Y-51654D02*
X47116Y-51782D01*
X47313Y-51654D02*
X47116Y-51654D01*
X47215Y-51968D02*
X47215Y-52027D01*
X47215Y-52027D02*
X47116Y-52027D01*
X47116Y-51968D02*
X47116Y-52027D01*
X47215Y-51968D02*
X47116Y-51968D01*
X47215Y-51773D02*
X47215Y-51832D01*
X47215Y-51832D02*
X47116Y-51832D01*
X47116Y-51773D02*
X47116Y-51832D01*
X47215Y-51773D02*
X47116Y-51773D01*
X47185Y-51822D02*
X47185Y-51978D01*
X47185Y-51978D02*
X47116Y-51978D01*
X47116Y-51822D02*
X47116Y-51978D01*
X47185Y-51822D02*
X47116Y-51822D01*
X46920Y-51861D02*
X46920Y-51939D01*
X46920Y-51939D02*
X46842Y-51939D01*
X46842Y-51861D02*
X46842Y-51939D01*
X46920Y-51861D02*
X46842Y-51861D01*
X46724Y-51664D02*
X46724Y-51782D01*
X46724Y-51782D02*
X46606Y-51782D01*
X46606Y-51664D02*
X46606Y-51782D01*
X46724Y-51664D02*
X46606Y-51664D01*
X46556Y-51654D02*
X46556Y-51743D01*
X46556Y-51743D02*
X46527Y-51743D01*
X46527Y-51654D02*
X46527Y-51743D01*
X46556Y-51654D02*
X46527Y-51654D01*
G54D16*
X46714Y-52126D02*
X47126Y-52126D01*
X47116Y-51674D02*
X46556Y-51674D01*
G54D17*
X46614Y-51723D02*
G75*
G03X46614Y-51723I-28J0D01*
G74*
G01*
G54D16*
X46527Y-51763D02*
G75*
G02X46527Y-52037I0J-137D01*
G74*
G01*
X47313Y-52037D02*
G75*
G02X47313Y-51763I0J137D01*
G74*
G01*
G54D13*
X49360Y-50290D02*
X48860Y-50290D01*
X49360Y-50790D02*
X48870Y-50790D01*
X49360Y-50940D02*
X49360Y-50140D01*
X49360Y-50140D02*
X48860Y-50140D01*
X48860Y-50140D02*
X48860Y-50940D01*
X48860Y-50940D02*
X49360Y-50940D01*
X51625Y-54080D02*
X51125Y-54080D01*
X51625Y-54580D02*
X51135Y-54580D01*
X51625Y-54730D02*
X51625Y-53930D01*
X51625Y-53930D02*
X51125Y-53930D01*
X51125Y-53930D02*
X51125Y-54730D01*
X51125Y-54730D02*
X51625Y-54730D01*
X53875Y-48905D02*
X53375Y-48905D01*
X53875Y-49405D02*
X53385Y-49405D01*
X53875Y-49555D02*
X53875Y-48755D01*
X53875Y-48755D02*
X53375Y-48755D01*
X53375Y-48755D02*
X53375Y-49555D01*
X53375Y-49555D02*
X53875Y-49555D01*
X50585Y-48970D02*
X51085Y-48970D01*
X50585Y-48470D02*
X51075Y-48470D01*
X50585Y-48320D02*
X50585Y-49120D01*
X50585Y-49120D02*
X51085Y-49120D01*
X51085Y-49120D02*
X51085Y-48320D01*
X51085Y-48320D02*
X50585Y-48320D01*
X45420Y-51245D02*
X45920Y-51245D01*
X45420Y-50745D02*
X45910Y-50745D01*
X45420Y-50595D02*
X45420Y-51395D01*
X45420Y-51395D02*
X45920Y-51395D01*
X45920Y-51395D02*
X45920Y-50595D01*
X45920Y-50595D02*
X45420Y-50595D01*
G54D18*
X50350Y-50560D02*
X50350Y-51760D01*
X50350Y-51760D02*
X50650Y-51760D01*
X50650Y-51760D02*
X50650Y-50560D01*
X50650Y-50560D02*
X50350Y-50560D01*
G54D13*
X52658Y-47630D02*
X52658Y-47832D01*
X52646Y-47856D01*
X52634Y-47868D01*
X52610Y-47880D01*
X52563Y-47880D01*
X52539Y-47868D01*
X52527Y-47856D01*
X52515Y-47832D01*
X52515Y-47630D01*
X52265Y-47880D02*
X52408Y-47880D01*
X52337Y-47880D02*
X52337Y-47630D01*
X52360Y-47665D01*
X52384Y-47689D01*
X52408Y-47701D01*
X52201Y-47734D02*
X52201Y-47877D01*
X52451Y-47805D02*
X52201Y-47805D01*
X52451Y-47960D02*
X52201Y-47960D01*
X52201Y-48055D01*
X52213Y-48079D01*
X52225Y-48091D01*
X52248Y-48103D01*
X52284Y-48103D01*
X52308Y-48091D01*
X52320Y-48079D01*
X52332Y-48055D01*
X52332Y-47960D01*
X52439Y-48198D02*
X52451Y-48234D01*
X52451Y-48293D01*
X52439Y-48317D01*
X52427Y-48329D01*
X52403Y-48341D01*
X52379Y-48341D01*
X52355Y-48329D01*
X52344Y-48317D01*
X52332Y-48293D01*
X52320Y-48246D01*
X52308Y-48222D01*
X52296Y-48210D01*
X52272Y-48198D01*
X52248Y-48198D01*
X52225Y-48210D01*
X52213Y-48222D01*
X52201Y-48246D01*
X52201Y-48305D01*
X52213Y-48341D01*
X52201Y-48424D02*
X52201Y-48591D01*
X52451Y-48484D01*
X52201Y-48793D02*
X52201Y-48746D01*
X52213Y-48722D01*
X52225Y-48710D01*
X52260Y-48686D01*
X52308Y-48674D01*
X52403Y-48674D01*
X52427Y-48686D01*
X52439Y-48698D01*
X52451Y-48722D01*
X52451Y-48770D01*
X52439Y-48793D01*
X52427Y-48805D01*
X52403Y-48817D01*
X52344Y-48817D01*
X52320Y-48805D01*
X52308Y-48793D01*
X52296Y-48770D01*
X52296Y-48722D01*
X52308Y-48698D01*
X52320Y-48686D01*
X52344Y-48674D01*
X52451Y-48936D02*
X52451Y-48984D01*
X52439Y-49008D01*
X52427Y-49020D01*
X52391Y-49043D01*
X52344Y-49055D01*
X52248Y-49055D01*
X52225Y-49043D01*
X52213Y-49031D01*
X52201Y-49008D01*
X52201Y-48960D01*
X52213Y-48936D01*
X52225Y-48924D01*
X52248Y-48912D01*
X52308Y-48912D01*
X52332Y-48924D01*
X52344Y-48936D01*
X52355Y-48960D01*
X52355Y-49008D01*
X52344Y-49031D01*
X52332Y-49043D01*
X52308Y-49055D01*
X52201Y-49139D02*
X52451Y-49305D01*
X52201Y-49305D02*
X52451Y-49139D01*
X52201Y-49377D02*
X52451Y-49543D01*
X52201Y-49543D02*
X52451Y-49377D01*
X47222Y-50917D02*
X47222Y-51119D01*
X47210Y-51143D01*
X47198Y-51155D01*
X47174Y-51167D01*
X47127Y-51167D01*
X47103Y-51155D01*
X47091Y-51143D01*
X47079Y-51119D01*
X47079Y-50917D01*
X46853Y-51000D02*
X46853Y-51167D01*
X46912Y-50905D02*
X46972Y-51083D01*
X46817Y-51083D01*
X47251Y-49271D02*
X47001Y-49271D01*
X47179Y-49354D01*
X47001Y-49438D01*
X47251Y-49438D01*
X47227Y-49700D02*
X47239Y-49688D01*
X47251Y-49652D01*
X47251Y-49628D01*
X47239Y-49592D01*
X47215Y-49569D01*
X47191Y-49557D01*
X47144Y-49545D01*
X47108Y-49545D01*
X47060Y-49557D01*
X47036Y-49569D01*
X47013Y-49592D01*
X47001Y-49628D01*
X47001Y-49652D01*
X47013Y-49688D01*
X47025Y-49700D01*
X47251Y-49807D02*
X47001Y-49807D01*
X47001Y-49902D01*
X47013Y-49926D01*
X47025Y-49938D01*
X47048Y-49950D01*
X47084Y-49950D01*
X47108Y-49938D01*
X47120Y-49926D01*
X47132Y-49902D01*
X47132Y-49807D01*
X47001Y-50033D02*
X47001Y-50200D01*
X47251Y-50092D01*
X47001Y-50271D02*
X47001Y-50426D01*
X47096Y-50342D01*
X47096Y-50378D01*
X47108Y-50402D01*
X47120Y-50414D01*
X47144Y-50426D01*
X47203Y-50426D01*
X47227Y-50414D01*
X47239Y-50402D01*
X47251Y-50378D01*
X47251Y-50307D01*
X47239Y-50283D01*
X47227Y-50271D01*
X47108Y-50569D02*
X47096Y-50545D01*
X47084Y-50533D01*
X47060Y-50521D01*
X47048Y-50521D01*
X47025Y-50533D01*
X47013Y-50545D01*
X47001Y-50569D01*
X47001Y-50616D01*
X47013Y-50640D01*
X47025Y-50652D01*
X47048Y-50664D01*
X47060Y-50664D01*
X47084Y-50652D01*
X47096Y-50640D01*
X47108Y-50616D01*
X47108Y-50569D01*
X47120Y-50545D01*
X47132Y-50533D01*
X47155Y-50521D01*
X47203Y-50521D01*
X47227Y-50533D01*
X47239Y-50545D01*
X47251Y-50569D01*
X47251Y-50616D01*
X47239Y-50640D01*
X47227Y-50652D01*
X47203Y-50664D01*
X47155Y-50664D01*
X47132Y-50652D01*
X47120Y-50640D01*
X47108Y-50616D01*
X47001Y-50747D02*
X47001Y-50902D01*
X47096Y-50819D01*
X47096Y-50854D01*
X47108Y-50878D01*
X47120Y-50890D01*
X47144Y-50902D01*
X47203Y-50902D01*
X47227Y-50890D01*
X47239Y-50878D01*
X47251Y-50854D01*
X47251Y-50783D01*
X47239Y-50759D01*
X47227Y-50747D01*
X47001Y-50985D02*
X47251Y-51152D01*
X47001Y-51152D02*
X47251Y-50985D01*
G54D10*
X51069Y-47781D02*
X50675Y-47781D01*
X50675Y-47931D01*
X50694Y-47969D01*
X50713Y-47988D01*
X50750Y-48006D01*
X50806Y-48006D01*
X50844Y-47988D01*
X50863Y-47969D01*
X50881Y-47931D01*
X50881Y-47781D01*
X51069Y-48381D02*
X51069Y-48156D01*
X51069Y-48269D02*
X50675Y-48269D01*
X50731Y-48231D01*
X50769Y-48194D01*
X50788Y-48156D01*
X50675Y-48625D02*
X50675Y-48663D01*
X50694Y-48700D01*
X50713Y-48719D01*
X50750Y-48738D01*
X50825Y-48756D01*
X50919Y-48756D01*
X50994Y-48738D01*
X51031Y-48719D01*
X51050Y-48700D01*
X51069Y-48663D01*
X51069Y-48625D01*
X51050Y-48588D01*
X51031Y-48569D01*
X50994Y-48550D01*
X50919Y-48531D01*
X50825Y-48531D01*
X50750Y-48550D01*
X50713Y-48569D01*
X50694Y-48588D01*
X50675Y-48625D01*
X50863Y-47819D02*
X50881Y-47875D01*
X50900Y-47894D01*
X50938Y-47913D01*
X50994Y-47913D01*
X51031Y-47894D01*
X51050Y-47875D01*
X51069Y-47838D01*
X51069Y-47688D01*
X50675Y-47688D01*
X50675Y-47819D01*
X50694Y-47856D01*
X50713Y-47875D01*
X50750Y-47894D01*
X50788Y-47894D01*
X50825Y-47875D01*
X50844Y-47856D01*
X50863Y-47819D01*
X50863Y-47688D01*
X50956Y-48063D02*
X50956Y-48250D01*
X51069Y-48025D02*
X50675Y-48156D01*
X51069Y-48288D01*
X50675Y-48363D02*
X50675Y-48588D01*
X51069Y-48475D02*
X50675Y-48475D01*
X50675Y-48663D02*
X50675Y-48888D01*
X51069Y-48775D02*
X50675Y-48775D01*
X49560Y-55209D02*
X49560Y-54815D01*
X49410Y-54815D01*
X49373Y-54834D01*
X49354Y-54853D01*
X49335Y-54890D01*
X49335Y-54946D01*
X49354Y-54984D01*
X49373Y-55003D01*
X49410Y-55021D01*
X49560Y-55021D01*
X48960Y-55209D02*
X49185Y-55209D01*
X49073Y-55209D02*
X49073Y-54815D01*
X49110Y-54871D01*
X49148Y-54909D01*
X49185Y-54928D01*
X50319Y-54815D02*
X50094Y-54815D01*
X50207Y-55209D02*
X50207Y-54815D01*
X49963Y-55209D02*
X49963Y-54815D01*
X49813Y-54815D01*
X49776Y-54834D01*
X49757Y-54853D01*
X49738Y-54890D01*
X49738Y-54946D01*
X49757Y-54984D01*
X49776Y-55003D01*
X49813Y-55021D01*
X49963Y-55021D01*
X49663Y-55246D02*
X49363Y-55246D01*
X49270Y-54815D02*
X49270Y-55134D01*
X49251Y-55171D01*
X49232Y-55190D01*
X49195Y-55209D01*
X49120Y-55209D01*
X49082Y-55190D01*
X49063Y-55171D01*
X49045Y-55134D01*
X49045Y-54815D01*
X48632Y-55209D02*
X48763Y-55021D01*
X48857Y-55209D02*
X48857Y-54815D01*
X48707Y-54815D01*
X48670Y-54834D01*
X48651Y-54853D01*
X48632Y-54890D01*
X48632Y-54946D01*
X48651Y-54984D01*
X48670Y-55003D01*
X48707Y-55021D01*
X48857Y-55021D01*
X48501Y-54815D02*
X48238Y-55209D01*
X48238Y-54815D02*
X48501Y-55209D01*
G54D13*
X52411Y-50996D02*
X52135Y-50996D01*
X52135Y-51062D01*
X52149Y-51101D01*
X52175Y-51127D01*
X52201Y-51140D01*
X52254Y-51154D01*
X52293Y-51154D01*
X52345Y-51140D01*
X52372Y-51127D01*
X52398Y-51101D01*
X52411Y-51062D01*
X52411Y-50996D01*
X52227Y-51390D02*
X52411Y-51390D01*
X52122Y-51324D02*
X52319Y-51259D01*
X52319Y-51429D01*
X51811Y-50291D02*
X51535Y-50291D01*
X51535Y-50357D01*
X51549Y-50396D01*
X51575Y-50423D01*
X51601Y-50436D01*
X51654Y-50449D01*
X51693Y-50449D01*
X51745Y-50436D01*
X51772Y-50423D01*
X51798Y-50396D01*
X51811Y-50357D01*
X51811Y-50291D01*
X51811Y-50567D02*
X51535Y-50567D01*
X51535Y-50751D02*
X51535Y-50803D01*
X51549Y-50830D01*
X51575Y-50856D01*
X51627Y-50869D01*
X51719Y-50869D01*
X51772Y-50856D01*
X51798Y-50830D01*
X51811Y-50803D01*
X51811Y-50751D01*
X51798Y-50725D01*
X51772Y-50698D01*
X51719Y-50685D01*
X51627Y-50685D01*
X51575Y-50698D01*
X51549Y-50725D01*
X51535Y-50751D01*
X51811Y-50987D02*
X51535Y-50987D01*
X51535Y-51053D01*
X51549Y-51092D01*
X51575Y-51118D01*
X51601Y-51131D01*
X51654Y-51145D01*
X51693Y-51145D01*
X51745Y-51131D01*
X51772Y-51118D01*
X51798Y-51092D01*
X51811Y-51053D01*
X51811Y-50987D01*
X51667Y-51263D02*
X51667Y-51354D01*
X51811Y-51394D02*
X51811Y-51263D01*
X51535Y-51263D01*
X51535Y-51394D01*
X51798Y-51499D02*
X51811Y-51538D01*
X51811Y-51604D01*
X51798Y-51630D01*
X51785Y-51643D01*
X51759Y-51656D01*
X51732Y-51656D01*
X51706Y-51643D01*
X51693Y-51630D01*
X51680Y-51604D01*
X51667Y-51551D01*
X51654Y-51525D01*
X51640Y-51512D01*
X51614Y-51499D01*
X51588Y-51499D01*
X51562Y-51512D01*
X51549Y-51525D01*
X51535Y-51551D01*
X51535Y-51617D01*
X51549Y-51656D01*
X51785Y-51932D02*
X51798Y-51919D01*
X51811Y-51879D01*
X51811Y-51853D01*
X51798Y-51814D01*
X51772Y-51788D01*
X51745Y-51774D01*
X51693Y-51761D01*
X51654Y-51761D01*
X51601Y-51774D01*
X51575Y-51788D01*
X51549Y-51814D01*
X51535Y-51853D01*
X51535Y-51879D01*
X51549Y-51919D01*
X51562Y-51932D01*
X51811Y-52050D02*
X51535Y-52050D01*
X51667Y-52050D02*
X51667Y-52208D01*
X51811Y-52208D02*
X51535Y-52208D01*
G54D19*
X47481Y-48779D02*
X47547Y-48685D01*
X47594Y-48779D02*
X47594Y-48582D01*
X47519Y-48582D01*
X47500Y-48592D01*
X47491Y-48601D01*
X47481Y-48620D01*
X47481Y-48648D01*
X47491Y-48667D01*
X47500Y-48676D01*
X47519Y-48685D01*
X47594Y-48685D01*
X47294Y-48779D02*
X47406Y-48779D01*
X47350Y-48779D02*
X47350Y-48582D01*
X47369Y-48610D01*
X47387Y-48629D01*
X47406Y-48639D01*
X47181Y-48667D02*
X47200Y-48657D01*
X47209Y-48648D01*
X47218Y-48629D01*
X47218Y-48620D01*
X47209Y-48601D01*
X47200Y-48592D01*
X47181Y-48582D01*
X47143Y-48582D01*
X47125Y-48592D01*
X47115Y-48601D01*
X47106Y-48620D01*
X47106Y-48629D01*
X47115Y-48648D01*
X47125Y-48657D01*
X47143Y-48667D01*
X47181Y-48667D01*
X47200Y-48676D01*
X47209Y-48685D01*
X47218Y-48704D01*
X47218Y-48742D01*
X47209Y-48760D01*
X47200Y-48770D01*
X47181Y-48779D01*
X47143Y-48779D01*
X47125Y-48770D01*
X47115Y-48760D01*
X47106Y-48742D01*
X47106Y-48704D01*
X47115Y-48685D01*
X47125Y-48676D01*
X47143Y-48667D01*
X47491Y-48876D02*
X47481Y-48867D01*
X47462Y-48857D01*
X47415Y-48857D01*
X47397Y-48867D01*
X47387Y-48876D01*
X47378Y-48895D01*
X47378Y-48914D01*
X47387Y-48942D01*
X47500Y-49054D01*
X47378Y-49054D01*
X47294Y-49054D02*
X47294Y-48857D01*
X47275Y-48979D02*
X47218Y-49054D01*
X47218Y-48923D02*
X47294Y-48998D01*
X45599Y-52890D02*
X45402Y-52890D01*
X45402Y-52965D01*
X45412Y-52984D01*
X45421Y-52993D01*
X45440Y-53003D01*
X45468Y-53003D01*
X45487Y-52993D01*
X45496Y-52984D01*
X45505Y-52965D01*
X45505Y-52890D01*
X45599Y-53190D02*
X45599Y-53078D01*
X45599Y-53134D02*
X45402Y-53134D01*
X45430Y-53115D01*
X45449Y-53097D01*
X45459Y-53078D01*
X45468Y-53359D02*
X45599Y-53359D01*
X45393Y-53312D02*
X45534Y-53266D01*
X45534Y-53387D01*
X45874Y-52834D02*
X45780Y-52768D01*
X45874Y-52721D02*
X45677Y-52721D01*
X45677Y-52796D01*
X45687Y-52815D01*
X45696Y-52825D01*
X45715Y-52834D01*
X45743Y-52834D01*
X45762Y-52825D01*
X45771Y-52815D01*
X45780Y-52796D01*
X45780Y-52721D01*
X45893Y-52872D02*
X45893Y-53022D01*
X45677Y-53040D02*
X45874Y-53106D01*
X45677Y-53172D01*
X45855Y-53350D02*
X45865Y-53341D01*
X45874Y-53312D01*
X45874Y-53294D01*
X45865Y-53266D01*
X45846Y-53247D01*
X45827Y-53237D01*
X45790Y-53228D01*
X45762Y-53228D01*
X45724Y-53237D01*
X45705Y-53247D01*
X45687Y-53266D01*
X45677Y-53294D01*
X45677Y-53312D01*
X45687Y-53341D01*
X45696Y-53350D01*
X45855Y-53547D02*
X45865Y-53538D01*
X45874Y-53509D01*
X45874Y-53491D01*
X45865Y-53463D01*
X45846Y-53444D01*
X45827Y-53434D01*
X45790Y-53425D01*
X45762Y-53425D01*
X45724Y-53434D01*
X45705Y-53444D01*
X45687Y-53463D01*
X45677Y-53491D01*
X45677Y-53509D01*
X45687Y-53538D01*
X45696Y-53547D01*
X48434Y-51463D02*
X48340Y-51397D01*
X48434Y-51350D02*
X48237Y-51350D01*
X48237Y-51425D01*
X48247Y-51444D01*
X48256Y-51453D01*
X48275Y-51463D01*
X48303Y-51463D01*
X48322Y-51453D01*
X48331Y-51444D01*
X48340Y-51425D01*
X48340Y-51350D01*
X48434Y-51650D02*
X48434Y-51538D01*
X48434Y-51594D02*
X48237Y-51594D01*
X48265Y-51575D01*
X48284Y-51557D01*
X48294Y-51538D01*
X48434Y-51744D02*
X48434Y-51782D01*
X48425Y-51801D01*
X48415Y-51810D01*
X48387Y-51829D01*
X48350Y-51838D01*
X48275Y-51838D01*
X48256Y-51829D01*
X48247Y-51819D01*
X48237Y-51801D01*
X48237Y-51763D01*
X48247Y-51744D01*
X48256Y-51735D01*
X48275Y-51726D01*
X48322Y-51726D01*
X48340Y-51735D01*
X48350Y-51744D01*
X48359Y-51763D01*
X48359Y-51801D01*
X48350Y-51819D01*
X48340Y-51829D01*
X48322Y-51838D01*
X48028Y-51374D02*
X48028Y-51449D01*
X47962Y-51402D02*
X48131Y-51402D01*
X48150Y-51411D01*
X48159Y-51430D01*
X48159Y-51449D01*
X48159Y-51514D02*
X47962Y-51514D01*
X48037Y-51514D02*
X48028Y-51533D01*
X48028Y-51571D01*
X48037Y-51590D01*
X48047Y-51599D01*
X48065Y-51608D01*
X48122Y-51608D01*
X48140Y-51599D01*
X48150Y-51590D01*
X48159Y-51571D01*
X48159Y-51533D01*
X48150Y-51514D01*
X48159Y-51777D02*
X47962Y-51777D01*
X48150Y-51777D02*
X48159Y-51758D01*
X48159Y-51721D01*
X48150Y-51702D01*
X48140Y-51693D01*
X48122Y-51683D01*
X48065Y-51683D01*
X48047Y-51693D01*
X48037Y-51702D01*
X48028Y-51721D01*
X48028Y-51758D01*
X48037Y-51777D01*
X53454Y-51398D02*
X53360Y-51332D01*
X53454Y-51285D02*
X53257Y-51285D01*
X53257Y-51360D01*
X53267Y-51379D01*
X53276Y-51388D01*
X53295Y-51398D01*
X53323Y-51398D01*
X53342Y-51388D01*
X53351Y-51379D01*
X53360Y-51360D01*
X53360Y-51285D01*
X53454Y-51585D02*
X53454Y-51473D01*
X53454Y-51529D02*
X53257Y-51529D01*
X53285Y-51510D01*
X53304Y-51492D01*
X53314Y-51473D01*
X53257Y-51707D02*
X53257Y-51726D01*
X53267Y-51745D01*
X53276Y-51754D01*
X53295Y-51764D01*
X53332Y-51773D01*
X53379Y-51773D01*
X53417Y-51764D01*
X53435Y-51754D01*
X53445Y-51745D01*
X53454Y-51726D01*
X53454Y-51707D01*
X53445Y-51689D01*
X53435Y-51679D01*
X53417Y-51670D01*
X53379Y-51661D01*
X53332Y-51661D01*
X53295Y-51670D01*
X53276Y-51679D01*
X53267Y-51689D01*
X53257Y-51707D01*
X53179Y-51295D02*
X53179Y-51182D01*
X53179Y-51238D02*
X52982Y-51238D01*
X53010Y-51220D01*
X53029Y-51201D01*
X53039Y-51182D01*
X52982Y-51417D02*
X52982Y-51435D01*
X52992Y-51454D01*
X53001Y-51464D01*
X53020Y-51473D01*
X53057Y-51482D01*
X53104Y-51482D01*
X53142Y-51473D01*
X53160Y-51464D01*
X53170Y-51454D01*
X53179Y-51435D01*
X53179Y-51417D01*
X53170Y-51398D01*
X53160Y-51388D01*
X53142Y-51379D01*
X53104Y-51370D01*
X53057Y-51370D01*
X53020Y-51379D01*
X53001Y-51388D01*
X52992Y-51398D01*
X52982Y-51417D01*
X52982Y-51604D02*
X52982Y-51623D01*
X52992Y-51642D01*
X53001Y-51651D01*
X53020Y-51661D01*
X53057Y-51670D01*
X53104Y-51670D01*
X53142Y-51661D01*
X53160Y-51651D01*
X53170Y-51642D01*
X53179Y-51623D01*
X53179Y-51604D01*
X53170Y-51585D01*
X53160Y-51576D01*
X53142Y-51567D01*
X53104Y-51557D01*
X53057Y-51557D01*
X53020Y-51567D01*
X53001Y-51576D01*
X52992Y-51585D01*
X52982Y-51604D01*
X53179Y-51754D02*
X52982Y-51754D01*
X53179Y-51867D02*
X53067Y-51782D01*
X52982Y-51867D02*
X53095Y-51754D01*
G54D13*
X47141Y-51521D02*
X47141Y-51221D01*
X47070Y-51221D01*
X47027Y-51235D01*
X46998Y-51264D01*
X46984Y-51292D01*
X46970Y-51350D01*
X46970Y-51392D01*
X46984Y-51450D01*
X46998Y-51478D01*
X47027Y-51507D01*
X47070Y-51521D01*
X47141Y-51521D01*
X46698Y-51221D02*
X46841Y-51221D01*
X46855Y-51364D01*
X46841Y-51350D01*
X46812Y-51335D01*
X46741Y-51335D01*
X46712Y-51350D01*
X46698Y-51364D01*
X46684Y-51392D01*
X46684Y-51464D01*
X46698Y-51492D01*
X46712Y-51507D01*
X46741Y-51521D01*
X46812Y-51521D01*
X46841Y-51507D01*
X46855Y-51492D01*
X47584Y-52521D02*
X47727Y-52521D01*
X47727Y-52221D01*
X47484Y-52364D02*
X47384Y-52364D01*
X47341Y-52521D02*
X47484Y-52521D01*
X47484Y-52221D01*
X47341Y-52221D01*
X47212Y-52521D02*
X47212Y-52221D01*
X47141Y-52221D01*
X47098Y-52235D01*
X47070Y-52264D01*
X47055Y-52292D01*
X47041Y-52350D01*
X47041Y-52392D01*
X47055Y-52450D01*
X47070Y-52478D01*
X47098Y-52507D01*
X47141Y-52521D01*
X47212Y-52521D01*
X46727Y-52321D02*
X46612Y-52321D01*
X46684Y-52221D02*
X46684Y-52478D01*
X46670Y-52507D01*
X46641Y-52521D01*
X46612Y-52521D01*
X46512Y-52521D02*
X46512Y-52221D01*
X46512Y-52335D02*
X46484Y-52321D01*
X46427Y-52321D01*
X46398Y-52335D01*
X46384Y-52350D01*
X46370Y-52378D01*
X46370Y-52464D01*
X46384Y-52492D01*
X46398Y-52507D01*
X46427Y-52521D01*
X46484Y-52521D01*
X46512Y-52507D01*
X46112Y-52521D02*
X46112Y-52221D01*
X46112Y-52507D02*
X46141Y-52521D01*
X46198Y-52521D01*
X46227Y-52507D01*
X46241Y-52492D01*
X46255Y-52464D01*
X46255Y-52378D01*
X46241Y-52350D01*
X46227Y-52335D01*
X46198Y-52321D01*
X46141Y-52321D01*
X46112Y-52335D01*
G54D20*
X49536Y-50464D02*
X49542Y-50458D01*
X49547Y-50441D01*
X49547Y-50430D01*
X49542Y-50413D01*
X49530Y-50402D01*
X49519Y-50396D01*
X49497Y-50391D01*
X49480Y-50391D01*
X49457Y-50396D01*
X49446Y-50402D01*
X49435Y-50413D01*
X49429Y-50430D01*
X49429Y-50441D01*
X49435Y-50458D01*
X49441Y-50464D01*
X49547Y-50576D02*
X49547Y-50509D01*
X49547Y-50542D02*
X49429Y-50542D01*
X49446Y-50531D01*
X49457Y-50520D01*
X49463Y-50509D01*
X49547Y-50688D02*
X49547Y-50621D01*
X49547Y-50655D02*
X49429Y-50655D01*
X49446Y-50643D01*
X49457Y-50632D01*
X49463Y-50621D01*
X51801Y-54310D02*
X51807Y-54304D01*
X51812Y-54287D01*
X51812Y-54276D01*
X51807Y-54259D01*
X51795Y-54248D01*
X51784Y-54242D01*
X51762Y-54237D01*
X51745Y-54237D01*
X51722Y-54242D01*
X51711Y-54248D01*
X51700Y-54259D01*
X51694Y-54276D01*
X51694Y-54287D01*
X51700Y-54304D01*
X51706Y-54310D01*
X51745Y-54377D02*
X51739Y-54366D01*
X51734Y-54360D01*
X51722Y-54355D01*
X51717Y-54355D01*
X51706Y-54360D01*
X51700Y-54366D01*
X51694Y-54377D01*
X51694Y-54400D01*
X51700Y-54411D01*
X51706Y-54417D01*
X51717Y-54422D01*
X51722Y-54422D01*
X51734Y-54417D01*
X51739Y-54411D01*
X51745Y-54400D01*
X51745Y-54377D01*
X51750Y-54366D01*
X51756Y-54360D01*
X51767Y-54355D01*
X51790Y-54355D01*
X51801Y-54360D01*
X51807Y-54366D01*
X51812Y-54377D01*
X51812Y-54400D01*
X51807Y-54411D01*
X51801Y-54417D01*
X51790Y-54422D01*
X51767Y-54422D01*
X51756Y-54417D01*
X51750Y-54411D01*
X51745Y-54400D01*
X54051Y-49135D02*
X54057Y-49129D01*
X54062Y-49112D01*
X54062Y-49101D01*
X54057Y-49084D01*
X54045Y-49073D01*
X54034Y-49067D01*
X54012Y-49062D01*
X53995Y-49062D01*
X53972Y-49067D01*
X53961Y-49073D01*
X53950Y-49084D01*
X53944Y-49101D01*
X53944Y-49112D01*
X53950Y-49129D01*
X53956Y-49135D01*
X53944Y-49242D02*
X53944Y-49185D01*
X54000Y-49180D01*
X53995Y-49185D01*
X53989Y-49197D01*
X53989Y-49225D01*
X53995Y-49236D01*
X54000Y-49242D01*
X54012Y-49247D01*
X54040Y-49247D01*
X54051Y-49242D01*
X54057Y-49236D01*
X54062Y-49225D01*
X54062Y-49197D01*
X54057Y-49185D01*
X54051Y-49180D01*
X50481Y-48700D02*
X50487Y-48694D01*
X50492Y-48677D01*
X50492Y-48666D01*
X50487Y-48649D01*
X50475Y-48638D01*
X50464Y-48632D01*
X50442Y-48627D01*
X50425Y-48627D01*
X50402Y-48632D01*
X50391Y-48638D01*
X50380Y-48649D01*
X50374Y-48666D01*
X50374Y-48677D01*
X50380Y-48694D01*
X50386Y-48700D01*
X50492Y-48756D02*
X50492Y-48779D01*
X50487Y-48790D01*
X50481Y-48795D01*
X50464Y-48807D01*
X50442Y-48812D01*
X50397Y-48812D01*
X50386Y-48807D01*
X50380Y-48801D01*
X50374Y-48790D01*
X50374Y-48767D01*
X50380Y-48756D01*
X50386Y-48750D01*
X50397Y-48745D01*
X50425Y-48745D01*
X50436Y-48750D01*
X50442Y-48756D01*
X50447Y-48767D01*
X50447Y-48790D01*
X50442Y-48801D01*
X50436Y-48807D01*
X50425Y-48812D01*
X45316Y-50919D02*
X45322Y-50913D01*
X45327Y-50896D01*
X45327Y-50885D01*
X45322Y-50868D01*
X45310Y-50857D01*
X45299Y-50851D01*
X45277Y-50846D01*
X45260Y-50846D01*
X45237Y-50851D01*
X45226Y-50857D01*
X45215Y-50868D01*
X45209Y-50885D01*
X45209Y-50896D01*
X45215Y-50913D01*
X45221Y-50919D01*
X45327Y-51031D02*
X45327Y-50964D01*
X45327Y-50997D02*
X45209Y-50997D01*
X45226Y-50986D01*
X45237Y-50975D01*
X45243Y-50964D01*
X45221Y-51076D02*
X45215Y-51082D01*
X45209Y-51093D01*
X45209Y-51121D01*
X45215Y-51132D01*
X45221Y-51138D01*
X45232Y-51143D01*
X45243Y-51143D01*
X45260Y-51138D01*
X45327Y-51070D01*
X45327Y-51143D01*
G54D21*
X49800Y-51131D02*
X49785Y-51102D01*
X49757Y-51074D01*
X49714Y-51031D01*
X49700Y-51002D01*
X49700Y-50974D01*
X49771Y-50988D02*
X49757Y-50960D01*
X49728Y-50931D01*
X49671Y-50917D01*
X49571Y-50917D01*
X49514Y-50931D01*
X49485Y-50960D01*
X49471Y-50988D01*
X49471Y-51045D01*
X49485Y-51074D01*
X49514Y-51102D01*
X49571Y-51117D01*
X49671Y-51117D01*
X49728Y-51102D01*
X49757Y-51074D01*
X49771Y-51045D01*
X49771Y-50988D01*
X49771Y-51402D02*
X49771Y-51231D01*
X49771Y-51317D02*
X49471Y-51317D01*
X49514Y-51288D01*
X49542Y-51260D01*
X49557Y-51231D01*
X50621Y-50031D02*
X50321Y-50031D01*
X50321Y-50102D01*
X50335Y-50145D01*
X50364Y-50174D01*
X50392Y-50188D01*
X50450Y-50202D01*
X50492Y-50202D01*
X50550Y-50188D01*
X50578Y-50174D01*
X50607Y-50145D01*
X50621Y-50102D01*
X50621Y-50031D01*
X50621Y-50331D02*
X50321Y-50331D01*
X50535Y-50431D01*
X50321Y-50531D01*
X50621Y-50531D01*
X50621Y-50674D02*
X50321Y-50674D01*
X50321Y-50788D01*
X50335Y-50817D01*
X50350Y-50831D01*
X50378Y-50845D01*
X50421Y-50845D01*
X50450Y-50831D01*
X50464Y-50817D01*
X50478Y-50788D01*
X50478Y-50674D01*
X50621Y-51131D02*
X50621Y-50960D01*
X50621Y-51045D02*
X50321Y-51045D01*
X50364Y-51017D01*
X50392Y-50988D01*
X50407Y-50960D01*
X50321Y-51317D02*
X50321Y-51345D01*
X50335Y-51374D01*
X50350Y-51388D01*
X50378Y-51402D01*
X50435Y-51417D01*
X50507Y-51417D01*
X50564Y-51402D01*
X50592Y-51388D01*
X50607Y-51374D01*
X50621Y-51345D01*
X50621Y-51317D01*
X50607Y-51288D01*
X50592Y-51274D01*
X50564Y-51260D01*
X50507Y-51245D01*
X50435Y-51245D01*
X50378Y-51260D01*
X50350Y-51274D01*
X50335Y-51288D01*
X50321Y-51317D01*
X50421Y-51674D02*
X50621Y-51674D01*
X50307Y-51602D02*
X50521Y-51531D01*
X50521Y-51717D01*
X50321Y-51974D02*
X50321Y-51831D01*
X50464Y-51817D01*
X50450Y-51831D01*
X50435Y-51860D01*
X50435Y-51931D01*
X50450Y-51960D01*
X50464Y-51974D01*
X50492Y-51988D01*
X50564Y-51988D01*
X50592Y-51974D01*
X50607Y-51960D01*
X50621Y-51931D01*
X50621Y-51860D01*
X50607Y-51831D01*
X50592Y-51817D01*
X50321Y-52117D02*
X50564Y-52117D01*
X50592Y-52131D01*
X50607Y-52145D01*
X50621Y-52174D01*
X50621Y-52231D01*
X50607Y-52260D01*
X50592Y-52274D01*
X50564Y-52288D01*
X50321Y-52288D01*
M02*
